<svg xmlns="http://www.w3.org/2000/svg" viewBox="0 0 512 512" fill="none">
  <path d="M119.467 119.467L119.467 392.533L165.973 392.533L165.973 281.6L211.2 328.533L256.427 281.6L256.427 392.533L392.533 392.533L392.533 119.467L346.027 119.467L346.027 233.387L256.427 145.067L165.973 233.387L165.973 119.467L119.467 119.467Z" fill="#FF3B4A"/>
  <path fill-rule="evenodd" clip-rule="evenodd" d="M256 0C397.385 0 512 114.615 512 256C512 397.385 397.385 512 256 512C114.615 512 0 397.385 0 256C0 114.615 114.615 0 256 0ZM256 46.9333C391.462 46.9333 465.067 120.538 465.067 256C465.067 391.462 391.462 465.067 256 465.067C120.538 465.067 46.9333 391.462 46.9333 256C46.9333 120.538 120.538 46.9333 256 46.9333Z" fill="#FF3B4A"/>
</svg>